# xmcd CD database file
#
# Track frame offsets:
#	150
#	12923
#	29898
#	46565
#	66380
#	83382
#	101793
#	117410
#	138428
#	152491
#	172150
#	191933
#	211489
#	230175
#	255706
#	273177
#	290822
#	313236
#	333476
#
# Disc length: 4675 seconds
#
# Revision: 3
# Processed by: cddbd v1.5.2PL0 Copyright (c) Steve Scherf et al.
# Submitted via: CDex 2.03
#
DISCID=26124113
DTITLE=McDonald, Michael - The Ultimate Collection
DYEAR=2005
DGENRE=Rock
TTITLE0=McDonald, Michael - Ain't No Mountain High Enough
TTITLE1=Doobie Brothers, The - What A Fool Believes
TTITLE2=McDonald, Michael - I Keep Forgettin' (Every Time You're Near)
TTITLE3=McDonald, Michael - Yah Mo B There (duet with James Ingram)
TTITLE4=Doobie Brothers, The - Takin' It To The Streets
TTITLE5=McDonald, Michael - Sweet Freedom
TTITLE6=Doobie Brothers, The - Minute By Minute
TTITLE7=McDonald, Michael - On My Own (duet with Patti Labelle)
TTITLE8=Doobie Brothers, The - You Belong To Me
TTITLE9=Doobie Brothers, The - Real Love
TTITLE10=McDonald, Michael - I Stand For You
TTITLE11=Doobie Brothers, The - It Keeps You Runnin'
TTITLE12=McDonald, Michael - Take It To Heart
TTITLE13=McDonald, Michael - No Love To Be Found
TTITLE14=McDonald, Michael - I Gotta Try
TTITLE15=McDonald, Michael - No Lookin' Back
TTITLE16=McDonald, Michael - Blink Of An Eye
TTITLE17=McDonald, Michael - Open The Door (Urban Remix)
TTITLE18=McDonald, Michael - Lost In The Parade
EXTD=YEAR: 2005
EXTT0=
EXTT1=
EXTT2=
EXTT3=
EXTT4=
EXTT5=
EXTT6=
EXTT7=
EXTT8=
EXTT9=
EXTT10=
EXTT11=
EXTT12=
EXTT13=
EXTT14=
EXTT15=
EXTT16=
EXTT17=
EXTT18=
PLAYORDER=
